<?xml version="1.0" encoding="UTF-8" standalone="no"?>
<!DOCTYPE svg PUBLIC "-//W3C//DTD SVG 1.1//EN" "http://www.w3.org/Graphics/SVG/1.1/DTD/svg11.dtd">
<svg xmlns:dc="http://purl.org/dc/elements/1.1/" version="1.1" xmlns="http://www.w3.org/2000/svg" xmlns:xl="http://www.w3.org/1999/xlink" viewBox="0 0 600 400" width="600" height="400">
  <defs>
    <marker orient="auto" overflow="visible" markerUnits="strokeWidth" id="StickArrow_Marker" stroke-linejoin="miter" stroke-miterlimit="10" viewBox="-1 -3 7 6" markerWidth="7" markerHeight="6" color="black">
      <g>
        <path d="M 4.8 0 L 0 0 M 0 -1.8 L 4.8 0 L 0 1.8" fill="none" stroke="currentColor" stroke-width="1"/>
      </g>
    </marker>
  </defs>
  <g id="Canvas_1" stroke-opacity="1" fill="none" stroke="none" fill-opacity="1" stroke-dasharray="none">
    <title>Canvas 1</title>
    <rect fill="white" x="0" y="0" width="600" height="400"/>
    <g id="Canvas_1_Layer_1">
      <title>Layer 1</title>
      <g id="Line_20">
        <line x1="471.5" y1="223.5" x2="471.5" y2="325.1" marker-end="url(#StickArrow_Marker)" stroke="black" stroke-linecap="round" stroke-linejoin="round" stroke-width="2"/>
      </g>
      <g id="Line_12">
        <line x1="283.5" y1="223.5" x2="283.5" y2="325.1" marker-end="url(#StickArrow_Marker)" stroke="black" stroke-linecap="round" stroke-linejoin="round" stroke-width="2"/>
      </g>
      <g id="Line_10">
        <line x1="256.85202" y1="223.5" x2="131.95894" y2="330.12415" marker-end="url(#StickArrow_Marker)" stroke="black" stroke-linecap="round" stroke-linejoin="round" stroke-width="2"/>
      </g>
      <g id="Line_5">
        <line x1="364.13438" y1="63.5" x2="303.4001" y2="166.87748" marker-end="url(#StickArrow_Marker)" stroke="black" stroke-linecap="round" stroke-linejoin="round" stroke-width="2"/>
      </g>
      <g id="Graphic_2">
        <path d="M 318 19.5 L 437 19.5 C 451.076 19.5 462.5 29.02 462.5 40.75 C 462.5 52.48 451.076 62 437 62 L 318 62 C 303.924 62 292.5 52.48 292.5 40.75 C 292.5 29.02 303.924 19.5 318 19.5 Z" stroke="#506fff" stroke-linecap="round" stroke-linejoin="round" stroke-width="3"/>
        <text transform="translate(314.5 33.75)" fill="black">
          <tspan font-family="Menlo" font-size="12" fill="black" x="23.264648" y="11">IfStatement</tspan>
        </text>
      </g>
      <g id="Graphic_3">
        <text transform="translate(34 89)" fill="black">
          <tspan font-family="Menlo" font-weight="bold" font-size="16" fill="black" x="0" y="15">IF A &lt; 10 THEN GOTO 40</tspan>
        </text>
      </g>
      <g id="Graphic_6">
        <path d="M 224 179.5 L 343 179.5 C 357.076 179.5 368.5 189.02 368.5 200.75 C 368.5 212.48 357.076 222 343 222 L 224 222 C 209.924 222 198.5 212.48 198.5 200.75 C 198.5 189.02 209.924 179.5 224 179.5 Z" stroke="#506fff" stroke-linecap="round" stroke-linejoin="round" stroke-width="3"/>
        <text transform="translate(220.5 186.75)" fill="black">
          <tspan font-family="Menlo" font-size="12" fill="black" x="1.5908203" y="11">BooleanExpression </tspan>
          <tspan font-family="Menlo" font-size="12" fill="black" x="52.163086" y="25">(&lt;)</tspan>
        </text>
      </g>
      <g id="Graphic_8">
        <path d="M 412 179.5 L 531 179.5 C 545.076 179.5 556.5 189.02 556.5 200.75 C 556.5 212.48 545.076 222 531 222 L 412 222 C 397.924 222 386.5 212.48 386.5 200.75 C 386.5 189.02 397.924 179.5 412 179.5 Z" stroke="#506fff" stroke-linecap="round" stroke-linejoin="round" stroke-width="3"/>
        <text transform="translate(408.5 193.75)" fill="black">
          <tspan font-family="Menlo" font-size="12" fill="black" x="16.04004" y="11">GoToStatement</tspan>
        </text>
      </g>
      <g id="Line_9">
        <line x1="390.86562" y1="63.5" x2="451.5999" y2="166.87748" marker-end="url(#StickArrow_Marker)" stroke="black" stroke-linecap="round" stroke-linejoin="round" stroke-width="2"/>
      </g>
      <g id="Graphic_11">
        <path d="M 36 340 L 155 340 C 169.076 340 180.5 349.52 180.5 361.25 C 180.5 372.98 169.076 382.5 155 382.5 L 36 382.5 C 21.924 382.5 10.5 372.98 10.5 361.25 C 10.5 349.52 21.924 340 36 340 Z" stroke="#506fff" stroke-linecap="round" stroke-linejoin="round" stroke-width="3"/>
        <text transform="translate(32.5 354.25)" fill="black">
          <tspan font-family="Menlo" font-size="12" fill="black" x="8.81543" y="11">VarRetrieve (A)</tspan>
        </text>
      </g>
      <g id="Graphic_13">
        <path d="M 224 339.5 L 343 339.5 C 357.076 339.5 368.5 349.02 368.5 360.75 C 368.5 372.48 357.076 382 343 382 L 224 382 C 209.924 382 198.5 372.48 198.5 360.75 C 198.5 349.02 209.924 339.5 224 339.5 Z" stroke="#506fff" stroke-linecap="round" stroke-linejoin="round" stroke-width="3"/>
        <text transform="translate(220.5 346.75)" fill="black">
          <tspan font-family="Menlo" font-size="12" fill="black" x="16.04004" y="11">NumberLiteral </tspan>
          <tspan font-family="Menlo" font-size="12" fill="black" x="48.55078" y="25">(10)</tspan>
        </text>
      </g>
      <g id="Graphic_14">
        <text transform="translate(299.74257 144.57584) rotate(-59.565764)" fill="black">
          <tspan font-family="Menlo" font-size="10" fill="black" x="0" y="9">boolean_expr</tspan>
        </text>
      </g>
      <g id="Graphic_17">
        <text transform="translate(159.45735 287.5358) rotate(-40.48816)" fill="black">
          <tspan font-family="Menlo" font-size="10" fill="black" x="0" y="9">left_expr</tspan>
        </text>
      </g>
      <g id="Graphic_18">
        <text transform="translate(268.5303 310.85254) rotate(-90)" fill="black">
          <tspan font-family="Menlo" font-size="10" fill="black" x="0" y="9">right_expr</tspan>
        </text>
      </g>
      <g id="Graphic_19">
        <text transform="translate(415.7626 77.00476) rotate(59.565764)" fill="black">
          <tspan font-family="Menlo" font-size="10" fill="black" x="0" y="9">then_statement</tspan>
        </text>
      </g>
      <g id="Graphic_21">
        <path d="M 412 339.5 L 531 339.5 C 545.076 339.5 556.5 349.02 556.5 360.75 C 556.5 372.48 545.076 382 531 382 L 412 382 C 397.924 382 386.5 372.48 386.5 360.75 C 386.5 349.02 397.924 339.5 412 339.5 Z" stroke="#506fff" stroke-linecap="round" stroke-linejoin="round" stroke-width="3"/>
        <text transform="translate(408.5 346.75)" fill="black">
          <tspan font-family="Menlo" font-size="12" fill="black" x="16.04004" y="11">NumberLiteral </tspan>
          <tspan font-family="Menlo" font-size="12" fill="black" x="48.55078" y="25">(40)</tspan>
        </text>
      </g>
      <g id="Graphic_22">
        <text transform="translate(457.0338 307.8423) rotate(-90)" fill="black">
          <tspan font-family="Menlo" font-size="10" fill="black" x="0" y="9">line_expr</tspan>
        </text>
      </g>
    </g>
  </g>
</svg>
